<svg width="25" height="24" viewBox="0 0 25 24" fill="none" xmlns="http://www.w3.org/2000/svg">
<path fill-rule="evenodd" clip-rule="evenodd" d="M12.75 3.75012C8.19365 3.75012 4.5 7.44377 4.5 12.0001C4.5 16.5565 8.19365 20.2501 12.75 20.2501C17.3063 20.2501 21 16.5565 21 12.0001C21 7.44377 17.3063 3.75012 12.75 3.75012ZM3 12.0001C3 6.61535 7.36522 2.25012 12.75 2.25012C18.1348 2.25012 22.5 6.61535 22.5 12.0001C22.5 17.3849 18.1348 21.7501 12.75 21.7501C7.36522 21.7501 3 17.3849 3 12.0001Z" fill="#00B37E"/>
<path fill-rule="evenodd" clip-rule="evenodd" d="M12.75 7.50012C12.9489 7.50012 13.1396 7.57914 13.2803 7.71979L16.4584 10.8979C16.7513 11.1908 16.7513 11.6657 16.4584 11.9586C16.1655 12.2515 15.6907 12.2515 15.3978 11.9586L12.75 9.31078L10.1022 11.9586C9.80928 12.2515 9.3344 12.2515 9.04151 11.9586C8.74862 11.6657 8.74862 11.1908 9.04151 10.8979L12.2196 7.71979C12.3603 7.57914 12.5511 7.50012 12.75 7.50012Z" fill="#00B37E"/>
<path fill-rule="evenodd" clip-rule="evenodd" d="M12.75 7.50012C13.1642 7.50012 13.5 7.83591 13.5 8.25012L13.5 15.7501C13.5 16.1643 13.1642 16.5001 12.75 16.5001C12.3358 16.5001 12 16.1643 12 15.7501L12 8.25012C12 7.83591 12.3358 7.50012 12.75 7.50012Z" fill="#00B37E"/>
</svg>
