<svg width="24" height="24" viewBox="0 0 25 24" fill="none" xmlns="http://www.w3.org/2000/svg">
<path fill-rule="evenodd" clip-rule="evenodd" d="M12.75 3.75012C8.19365 3.75012 4.5 7.44377 4.5 12.0001C4.5 16.5565 8.19365 20.2501 12.75 20.2501C17.3063 20.2501 21 16.5565 21 12.0001C21 7.44377 17.3063 3.75012 12.75 3.75012ZM3 12.0001C3 6.61535 7.36522 2.25012 12.75 2.25012C18.1348 2.25012 22.5 6.61535 22.5 12.0001C22.5 17.3849 18.1348 21.7501 12.75 21.7501C7.36522 21.7501 3 17.3849 3 12.0001Z" fill="white"/>
<path fill-rule="evenodd" clip-rule="evenodd" d="M9.04157 12.0416C9.33446 11.7487 9.80934 11.7487 10.1022 12.0416L12.75 14.6894L15.3978 12.0416C15.6907 11.7487 16.1656 11.7487 16.4585 12.0416C16.7514 12.3345 16.7514 12.8094 16.4585 13.1023L13.2804 16.2804C12.9875 16.5733 12.5126 16.5733 12.2197 16.2804L9.04157 13.1023C8.74868 12.8094 8.74868 12.3345 9.04157 12.0416Z" fill="white"/>
<path fill-rule="evenodd" clip-rule="evenodd" d="M12.7501 7.50012C13.1643 7.50012 13.5001 7.83591 13.5001 8.25012L13.5001 15.7501C13.5001 16.1643 13.1643 16.5001 12.7501 16.5001C12.3358 16.5001 12.0001 16.1643 12.0001 15.7501L12.0001 8.25012C12.0001 7.83591 12.3358 7.50012 12.7501 7.50012Z" fill="white"/>
</svg>
