<svg width="25" height="24" viewBox="0 0 25 24" fill="none" xmlns="http://www.w3.org/2000/svg">
<path fill-rule="evenodd" clip-rule="evenodd" d="M12.25 3.75012C7.69365 3.75012 4 7.44377 4 12.0001C4 16.5565 7.69365 20.2501 12.25 20.2501C16.8063 20.2501 20.5 16.5565 20.5 12.0001C20.5 7.44377 16.8063 3.75012 12.25 3.75012ZM2.5 12.0001C2.5 6.61535 6.86522 2.25012 12.25 2.25012C17.6348 2.25012 22 6.61535 22 12.0001C22 17.3849 17.6348 21.7501 12.25 21.7501C6.86522 21.7501 2.5 17.3849 2.5 12.0001Z" fill="#F75A68"/>
<path fill-rule="evenodd" clip-rule="evenodd" d="M8.54157 12.0416C8.83446 11.7487 9.30934 11.7487 9.60223 12.0416L12.25 14.6894L14.8978 12.0416C15.1907 11.7487 15.6656 11.7487 15.9585 12.0416C16.2514 12.3345 16.2514 12.8094 15.9585 13.1023L12.7804 16.2804C12.4875 16.5733 12.0126 16.5733 11.7197 16.2804L8.54157 13.1023C8.24868 12.8094 8.24868 12.3345 8.54157 12.0416Z" fill="#F75A68"/>
<path fill-rule="evenodd" clip-rule="evenodd" d="M12.2501 7.50012C12.6643 7.50012 13.0001 7.83591 13.0001 8.25012L13.0001 15.7501C13.0001 16.1643 12.6643 16.5001 12.2501 16.5001C11.8358 16.5001 11.5001 16.1643 11.5001 15.7501L11.5001 8.25012C11.5001 7.83591 11.8358 7.50012 12.2501 7.50012Z" fill="#F75A68"/>
</svg>
